<?xml version='1.0' encoding='utf-8'?>
<svg xmlns="http://www.w3.org/2000/svg" version="1.1" width="1024" height="1024" viewBox="0 0 1024 1024">
  <g transform="translate(166 102) scale(0.23066)">
    <path d="M0 0 C7.68 6.58 10.82 12.45 14 22 C14.69 37.25 13.04 50.9 7 65 C6.7 65.97 6.7 65.97 5.2 70.89 C2.7 78.96 -0.21 86.79 -3.19 94.69 C-7.95 107.42 -12.54 120.18 -16.95 133.04 C-21.93 147.51 -27.32 161.79 -33 176 C-35.01 181.66 -37.01 187.33 -39 193 C-41.37 199.63 -43.75 206.25 -46.12 212.88 C-47.32 216.21 -48.52 219.55 -49.76 222.99 C-52.16 229.67 -54.58 236.33 -57 243 C-57.99 246.3 -58.98 249.6 -60 253 C-61.92 258.82 -63.86 264.63 -65.81 270.44 C-69.99 282.93 -74.09 295.43 -78 308 C-78.53 309.65 -78.53 309.65 -81.19 318 C-83.26 324.63 -85.17 331.3 -87 338 C-88.36 342.61 -89.74 347.21 -91.12 351.81 C-91.52 353.14 -91.52 353.14 -93.54 359.85 C-95.11 365.03 -96.67 370.22 -98.24 375.4 C-106.25 401.94 -113.82 428.61 -121.15 455.35 C-122.8 461.29 -124.55 467.21 -126.31 473.12 C-130.74 488.16 -134.46 503.38 -138.31 518.57 C-141 529.01 -143.9 539.36 -146.92 549.71 C-149.49 558.71 -151.9 567.76 -154.31 576.81 C-158.88 593.94 -163.63 611.01 -168.49 628.05 C-171.1 637.34 -173.55 646.67 -176 656 C-178.74 665.99 -181.51 675.98 -184.28 685.96 C-186.14 692.83 -187.93 699.72 -189.66 706.63 C-191.28 713.13 -193.08 719.58 -195 726 C-199.98 742.76 -204.2 759.68 -208.41 776.65 C-211.5 789 -214.76 801.3 -218.04 813.6 C-219.63 819.59 -221.14 825.61 -222.62 831.62 C-224.91 840.63 -227.48 849.52 -230.12 858.42 C-232.17 865.61 -234.04 872.82 -235.88 880.06 C-239.28 893.4 -243.02 906.61 -246.9 919.81 C-249.73 929.51 -252.37 939.25 -255 949 C-258.58 962.26 -262.28 975.47 -266.14 988.65 C-268.83 997.84 -271.45 1007.04 -274.07 1016.25 C-275.3 1020.54 -276.53 1024.84 -277.77 1029.12 C-280.06 1037.06 -282.21 1044.94 -284 1053 C-285.98 1059.34 -287.98 1065.67 -290 1072 C-291.95 1078.45 -293.89 1084.91 -295.81 1091.38 C-300.12 1105.79 -304.52 1120.17 -309.01 1134.53 C-310.8 1140.35 -312.5 1146.21 -314.19 1152.06 C-318.02 1165.33 -322.25 1178.46 -326.46 1191.6 C-330.6 1204.54 -334.64 1217.51 -338.62 1230.5 C-347.79 1260.21 -357.82 1289.62 -368 1319 C-369.18 1322.4 -370.35 1325.79 -371.57 1329.29 C-378.58 1349.48 -385.71 1369.63 -393 1389.72 C-395.8 1397.45 -398.56 1405.19 -401.31 1412.94 C-407.83 1431.19 -414.87 1449.19 -422.21 1467.12 C-424.86 1473.66 -427.42 1480.22 -429.94 1486.81 C-441.65 1517.47 -454.24 1547.77 -467 1578 C-467.39 1578.95 -467.39 1578.95 -469.38 1583.75 C-482.96 1616.09 -497.33 1648.14 -512 1680 C-512.73 1681.59 -512.73 1681.59 -516.43 1689.64 C-517.21 1691.35 -517.21 1691.35 -521.19 1700 C-521.93 1701.61 -521.93 1701.61 -525.67 1709.75 C-529.64 1718.24 -533.78 1726.63 -538 1735 C-539.28 1737.74 -540.56 1740.49 -541.88 1743.31 C-546.33 1752.69 -551.14 1761.83 -556 1771 C-559.97 1778.88 -563.89 1786.78 -567.81 1794.69 C-576.53 1811.98 -585.66 1829.04 -595 1846 C-596.21 1848.21 -597.42 1850.41 -598.67 1852.69 C-606.18 1866.3 -613.98 1879.68 -622 1893 C-624.14 1896.76 -626.26 1900.54 -628.38 1904.31 C-634.97 1916.05 -641.94 1927.54 -649 1939 C-649.94 1940.54 -649.94 1940.54 -654.69 1948.31 C-656.44 1951.18 -658.19 1954.05 -660 1957 C-661.73 1959.87 -663.47 1962.73 -665.25 1965.69 C-675.14 1981.7 -685.53 1997.37 -696 2013 C-700.09 2019.13 -704.18 2025.27 -708.26 2031.41 C-717.08 2044.67 -725.98 2057.88 -735 2071 C-737.21 2074.24 -739.41 2077.48 -741.69 2080.81 C-755.55 2100.98 -770.14 2120.56 -785 2140 C-787.31 2143.16 -789.62 2146.31 -792 2149.56 C-798.45 2158.25 -805.13 2166.64 -812 2175 C-815.67 2179.66 -819.34 2184.33 -823 2189 C-832.88 2201.43 -842.93 2213.72 -853 2226 C-855.23 2228.72 -857.45 2231.45 -859.75 2234.25 C-869.26 2245.72 -878.99 2256.96 -889 2268 C-889.73 2268.81 -889.73 2268.81 -893.44 2272.94 C-896.66 2276.51 -899.89 2280.07 -903.12 2283.62 C-907.13 2288.04 -911.07 2292.51 -915 2297 C-921.9 2304.45 -928.82 2311.82 -936 2319 C-938.31 2321.64 -940.62 2324.28 -943 2327 C-947.56 2331.65 -952.14 2336.27 -956.75 2340.88 C-959.44 2343.57 -962.13 2346.27 -964.91 2349.04 C-965.61 2349.74 -965.61 2349.74 -969.15 2353.28 C-973.42 2357.55 -977.69 2361.82 -981.96 2366.09 C-984.65 2368.79 -987.34 2371.48 -990.12 2374.25 C-992.59 2376.72 -995.06 2379.19 -997.6 2381.73 C-1002.26 2386.3 -1007.09 2390.7 -1012 2395 C-1013.48 2396.49 -1014.97 2397.97 -1016.5 2399.5 C-1020.5 2403.5 -1024.74 2407.27 -1029 2411 C-1031.31 2413.31 -1033.62 2415.62 -1036 2418 C-1038.64 2420.31 -1041.28 2422.62 -1044 2425 C-1045.75 2426.61 -1047.51 2428.22 -1049.31 2429.88 C-1052.95 2433.15 -1056.65 2436.35 -1060.44 2439.44 C-1064.39 2442.68 -1068.23 2446.05 -1072 2449.5 C-1077.52 2454.56 -1083.19 2459.28 -1089 2464 C-1091.5 2466.17 -1093.99 2468.33 -1096.56 2470.56 C-1102.29 2475.52 -1108.06 2480.31 -1114 2485 C-1114.88 2485.72 -1114.88 2485.72 -1119.31 2489.38 C-1125.45 2494.37 -1131.72 2499.18 -1138 2504 C-1140.35 2505.9 -1142.7 2507.8 -1145.12 2509.75 C-1153.92 2516.73 -1162.94 2523.37 -1172 2530 C-1174.66 2532 -1177.32 2534 -1180.06 2536.06 C-1200.58 2551.41 -1221.42 2566.2 -1243 2580 C-1246.3 2582.14 -1249.6 2584.29 -1253 2586.5 C-1288.67 2609.69 -1324.77 2631.91 -1361.95 2652.61 C-1367.68 2655.82 -1373.37 2659.09 -1379.06 2662.38 C-1387.6 2667.21 -1396.2 2671.67 -1405 2676 C-1407.47 2677.32 -1409.95 2678.64 -1412.5 2680 C-1420.27 2684.14 -1428.12 2688.07 -1436 2692 C-1438.76 2693.39 -1441.52 2694.78 -1444.37 2696.22 C-1458.79 2703.48 -1473.19 2710.58 -1488 2717 C-1493.52 2719.52 -1499.04 2722.04 -1504.56 2724.56 C-1515.63 2729.6 -1526.72 2734.45 -1538 2739 C-1539.75 2739.8 -1541.51 2740.61 -1543.31 2741.44 C-1551.76 2745.24 -1560.39 2748.58 -1569 2752 C-1573.29 2753.77 -1577.58 2755.54 -1581.88 2757.31 C-1602.99 2765.93 -1624.47 2773.51 -1646 2781 C-1648.21 2781.8 -1650.43 2782.59 -1652.71 2783.41 C-1687.41 2795.89 -1722.53 2806.92 -1758 2817 C-1760.7 2817.78 -1763.41 2818.55 -1766.2 2819.36 C-1811.02 2832.23 -1811.02 2832.23 -1828 2836 C-1830.29 2836.58 -1832.58 2837.16 -1834.94 2837.75 C-1854.46 2842.6 -1874.11 2846.93 -1893.74 2851.34 C-1899.67 2852.7 -1905.59 2854.12 -1911.5 2855.56 C-1922.62 2858.14 -1933.77 2860.33 -1944.98 2862.46 C-1952.6 2863.92 -1960.21 2865.45 -1967.81 2867 C-1984.16 2870.28 -2000.57 2873.15 -2017 2876 C-2023.79 2877.19 -2030.58 2878.37 -2037.38 2879.56 C-2040.46 2880.1 -2043.54 2880.64 -2046.71 2881.19 C-2054.61 2882.58 -2062.5 2883.99 -2070.39 2885.41 C-2085.05 2888.03 -2099.74 2890.5 -2114.44 2892.94 C-2115.74 2893.15 -2115.74 2893.15 -2122.36 2894.25 C-2142.23 2897.55 -2162.11 2900.79 -2182 2904 C-2213.1 2909.04 -2244.15 2914.59 -2275 2921 C-2278.06 2921.63 -2281.13 2922.26 -2284.28 2922.91 C-2300.31 2926.23 -2316.21 2929.66 -2332 2934 C-2334.56 2934.58 -2337.11 2935.16 -2339.75 2935.75 C-2353.3 2939.05 -2366.63 2943.03 -2380 2947 C-2382.23 2947.65 -2384.46 2948.3 -2386.76 2948.98 C-2403.16 2953.87 -2419.08 2959.73 -2435 2966 C-2437.24 2966.88 -2439.48 2967.75 -2441.78 2968.66 C-2500.29 2992 -2554.65 3022.4 -2603 3063 C-2605.16 3064.8 -2607.31 3066.61 -2609.53 3068.47 C-2617.56 3075.49 -2625.14 3082.83 -2632.69 3090.38 C-2635.31 3092.98 -2637.93 3095.59 -2640.64 3098.27 C-2647.29 3105.25 -2653.17 3112.33 -2659 3120 C-2660.98 3122.43 -2662.96 3124.86 -2665 3127.36 C-2683.03 3150.31 -2699.33 3175.68 -2712 3202 C-2713.23 3204.44 -2714.46 3206.89 -2715.73 3209.41 C-2725.72 3229.53 -2734.9 3250.04 -2743 3271 C-2744.18 3273.95 -2745.35 3276.9 -2746.56 3279.94 C-2757.92 3309.89 -2767.49 3340.92 -2775.45 3371.94 C-2776.49 3376 -2777.54 3380.04 -2778.62 3384.09 C-2783.07 3400.92 -2786.99 3417.85 -2790.86 3434.82 C-2793.37 3445.61 -2796.16 3456.29 -2799 3467 C-2799.82 3470.53 -2800.65 3474.05 -2801.5 3477.69 C-2807.89 3504.05 -2815.11 3521.46 -2837 3538 C-2860.39 3552.09 -2885.51 3554.13 -2912 3550 C-2931.93 3544.15 -2945.33 3537.51 -2957 3520 C-2974.89 3475.08 -2947.08 3413.62 -2934.82 3369.58 C-2933.03 3363.13 -2931.29 3356.66 -2929.56 3350.19 C-2923.5 3327.64 -2917.2 3305.22 -2910 3283 C-2904.08 3264.4 -2898.33 3245.78 -2893 3227 C-2890.68 3219.66 -2888.35 3212.33 -2886 3205 C-2884.77 3200.96 -2883.54 3196.92 -2882.31 3192.88 C-2878.07 3179.01 -2873.46 3165.27 -2868.83 3151.52 C-2866.12 3143.38 -2863.55 3135.2 -2861 3127 C-2852.88 3101.69 -2844.55 3076.49 -2835.61 3051.45 C-2833.59 3045.69 -2831.76 3039.85 -2830 3034 C-2827.81 3027.85 -2825.6 3021.7 -2823.38 3015.56 C-2818.34 3001.61 -2813.45 2987.62 -2808.87 2973.51 C-2807.09 2968.28 -2805.05 2963.13 -2803 2958 C-2801.97 2955.05 -2800.94 2952.1 -2799.88 2949.06 C-2792.84 2928.98 -2785.29 2909.09 -2777.72 2889.2 C-2775.09 2882.25 -2772.51 2875.28 -2769.94 2868.31 C-2762.54 2848.3 -2754.83 2828.44 -2746.74 2808.7 C-2744.02 2802.05 -2741.35 2795.37 -2738.69 2788.69 C-2735.25 2780.07 -2731.68 2771.52 -2728 2763 C-2721.51 2747.48 -2715.08 2731.93 -2708.66 2716.38 C-2704.54 2706.51 -2700.08 2696.82 -2695.56 2687.12 C-2690.34 2675.9 -2685.16 2664.65 -2680.19 2653.31 C-2676.34 2644.75 -2672.2 2636.4 -2668 2628 C-2667.51 2626.85 -2667.51 2626.85 -2665 2621 C-2661.64 2613.16 -2657.84 2605.62 -2654 2598 C-2652.51 2594.86 -2651.03 2591.73 -2649.5 2588.5 C-2642.69 2574.13 -2635.44 2560.05 -2628 2546 C-2625.32 2540.67 -2622.65 2535.34 -2620 2530 C-2614.83 2519.57 -2609.48 2509.27 -2604 2499 C-2600.18 2491.41 -2596.4 2483.8 -2592.62 2476.19 C-2585.76 2462.58 -2578.56 2449.23 -2571 2436 C-2570.07 2434.12 -2569.14 2432.24 -2568.18 2430.3 C-2565.14 2424.27 -2561.87 2418.49 -2558.44 2412.69 C-2553.59 2404.44 -2548.81 2396.16 -2544.12 2387.81 C-2539.59 2379.76 -2534.89 2371.85 -2530 2364 C-2525.35 2356.16 -2520.74 2348.31 -2516.25 2340.38 C-2510.35 2330.14 -2504.17 2320.08 -2498 2310 C-2496.18 2307.03 -2494.37 2304.06 -2492.5 2301 C-2490.68 2298.03 -2488.87 2295.06 -2487 2292 C-2485.91 2290.2 -2484.82 2288.4 -2483.7 2286.55 C-2473.22 2269.24 -2462.4 2252.17 -2451.31 2235.25 C-2446.77 2228.31 -2442.38 2221.34 -2438.06 2214.25 C-2435.35 2209.83 -2432.59 2205.43 -2429.53 2201.25 C-2423.26 2192.59 -2417.4 2183.66 -2411.5 2174.75 C-2401.51 2159.71 -2391.42 2144.75 -2381 2130 C-2379.98 2128.55 -2379.98 2128.55 -2374.81 2121.19 C-2368.59 2112.42 -2362.29 2103.71 -2356 2095 C-2354.04 2092.2 -2352.08 2089.39 -2350.06 2086.5 C-2343.62 2077.46 -2336.83 2068.75 -2330 2060 C-2326.66 2055.34 -2323.33 2050.67 -2320 2046 C-2310.88 2033.82 -2301.53 2021.86 -2292 2010 C-2288.66 2005.67 -2285.33 2001.34 -2282 1997 C-2274.12 1986.9 -2266.08 1976.94 -2258 1967 C-2256.18 1964.67 -2254.37 1962.34 -2252.5 1959.94 C-2246.55 1952.43 -2240.3 1945.22 -2234 1938 C-2230.99 1934.34 -2227.99 1930.67 -2225 1927 C-2219.87 1920.88 -2214.73 1914.8 -2209.38 1908.88 C-2206.39 1905.55 -2203.5 1902.15 -2200.69 1898.69 C-2195.36 1892.22 -2189.71 1886.13 -2184 1880 C-2181.69 1877.36 -2179.38 1874.72 -2177 1872 C-2174 1868.67 -2171 1865.33 -2168 1862 C-2165.69 1859.36 -2163.38 1856.72 -2161 1854 C-2157.01 1849.66 -2153.01 1845.33 -2149 1841 C-2147.25 1839.08 -2145.49 1837.16 -2143.69 1835.19 C-2139.28 1830.39 -2134.83 1825.63 -2130.38 1820.88 C-2126.45 1816.68 -2122.54 1812.48 -2118.72 1808.19 C-2113.66 1802.63 -2108.42 1797.32 -2103.09 1792.02 C-2102.06 1791 -2102.06 1791 -2096.84 1785.8 C-2094.71 1783.68 -2092.57 1781.56 -2090.38 1779.38 C-2086.13 1775.16 -2081.89 1770.93 -2077.65 1766.71 C-2075.77 1764.85 -2073.9 1762.98 -2071.97 1761.06 C-2067.83 1756.85 -2063.89 1752.44 -2060 1748 C-2057.86 1746 -2055.71 1744 -2053.5 1741.94 C-2044.54 1733.57 -2035.91 1724.94 -2027.29 1716.22 C-2023 1711.99 -2018.53 1707.96 -2014 1704 C-2011.36 1701.36 -2008.72 1698.72 -2006 1696 C-2000.83 1690.83 -1995.5 1685.81 -1990 1681 C-1988.51 1679.52 -1987.03 1678.03 -1985.5 1676.5 C-1981.5 1672.5 -1977.26 1668.73 -1973 1665 C-1967.66 1660 -1962.33 1655 -1957 1650 C-1951.06 1644.6 -1945.05 1639.29 -1939 1634 C-1937.41 1632.56 -1935.82 1631.11 -1934.19 1629.62 C-1930.71 1626.53 -1927.17 1623.51 -1923.56 1620.56 C-1917.86 1615.89 -1912.43 1610.99 -1907 1606 C-1904.36 1603.69 -1901.72 1601.38 -1899 1599 C-1897.41 1597.56 -1895.82 1596.11 -1894.19 1594.62 C-1888.91 1589.92 -1883.5 1585.45 -1878 1581 C-1871.91 1576.05 -1865.89 1571.05 -1859.94 1565.94 C-1854.37 1561.17 -1848.74 1556.55 -1843 1552 C-1837.04 1547.17 -1831.17 1542.28 -1825.38 1537.25 C-1817.45 1530.54 -1809.26 1524.3 -1801 1518 C-1795.33 1513.34 -1789.66 1508.67 -1784 1504 C-1779.68 1500.64 -1775.35 1497.31 -1771 1494 C-1763.73 1488.42 -1756.48 1482.82 -1749.25 1477.19 C-1735.03 1466.14 -1720.72 1455.37 -1706 1445 C-1701.66 1441.67 -1697.33 1438.34 -1693 1435 C-1687.01 1430.65 -1681.01 1426.32 -1675 1422 C-1671.95 1419.79 -1668.89 1417.59 -1665.75 1415.31 C-1658.18 1409.85 -1650.6 1404.42 -1643 1399 C-1640.73 1397.37 -1638.46 1395.74 -1636.12 1394.06 C-1631.2 1390.56 -1626.24 1387.11 -1621.25 1383.69 C-1615.49 1379.72 -1609.79 1375.67 -1604.12 1371.56 C-1595.21 1365.15 -1586.14 1359.07 -1577 1353 C-1573.6 1350.63 -1570.2 1348.26 -1566.81 1345.88 C-1558.61 1340.13 -1550.35 1334.52 -1542 1329 C-1539.9 1327.6 -1537.79 1326.19 -1535.62 1324.75 C-1530.75 1321.5 -1525.88 1318.25 -1521 1315 C-1518.57 1313.37 -1516.13 1311.74 -1513.62 1310.06 C-1507.46 1305.97 -1501.25 1301.97 -1495 1298 C-1479.43 1287.91 -1463.95 1277.68 -1448.56 1267.31 C-1439.5 1261.33 -1430.34 1255.54 -1421.11 1249.81 C-1413.39 1245 -1405.72 1240.1 -1398.05 1235.21 C-1393.61 1232.39 -1389.15 1229.6 -1384.69 1226.81 C-1373.74 1219.96 -1362.91 1212.95 -1352.19 1205.75 C-1345.89 1201.59 -1339.54 1197.76 -1333 1194 C-1321.19 1186.87 -1309.58 1179.5 -1298 1172 C-1292.05 1168.26 -1286.09 1164.55 -1280.13 1160.84 C-1270.72 1154.95 -1261.36 1148.97 -1252 1143 C-1241.3 1136.2 -1230.56 1129.49 -1219.75 1122.88 C-1210.36 1117.11 -1201.16 1111.13 -1192 1105 C-1186.78 1101.73 -1181.53 1098.49 -1176.29 1095.26 C-1162.82 1086.96 -1149.57 1078.4 -1136.38 1069.69 C-1124.54 1061.89 -1112.57 1054.44 -1100.37 1047.22 C-1093.42 1043.05 -1086.71 1038.55 -1080 1034 C-1071.42 1028.41 -1062.81 1022.88 -1054.12 1017.44 C-1041.62 1009.49 -1029.31 1001.25 -1017 993 C-1010.41 988.59 -1003.8 984.23 -997.12 979.94 C-986.64 973.11 -976.32 966.08 -966 959 C-964.31 957.85 -962.61 956.69 -960.87 955.5 C-951.49 949.12 -942.21 942.63 -933 936 C-925.31 930.47 -917.58 925.03 -909.75 919.69 C-893.9 908.82 -878.46 897.41 -863 886 C-861.7 885.05 -861.7 885.05 -855.12 880.25 C-850.61 876.92 -846.13 873.55 -841.69 870.12 C-836.69 866.29 -831.61 862.56 -826.5 858.88 C-817.8 852.58 -809.26 846.13 -800.73 839.61 C-795.55 835.66 -790.27 831.83 -785 828 C-783.21 826.56 -781.41 825.11 -779.56 823.62 C-775 820 -775 820 -771 818 C-771 817.34 -771 816.68 -771 816 C-779.57 821.06 -787.9 826.23 -796 832 C-804.6 837.78 -813.26 843.44 -822 849 C-823.08 849.73 -823.08 849.73 -828.56 853.44 C-837.86 859.57 -847.33 865.37 -856.83 871.18 C-861.51 874.07 -866.11 877.08 -870.69 880.12 C-880.6 886.73 -890.79 892.86 -901 899 C-902.33 899.8 -902.33 899.8 -909.06 903.88 C-916 908 -922.99 912 -930 916 C-932.56 917.51 -935.11 919.01 -937.75 920.56 C-959.73 933.48 -981.89 946.08 -1004.12 958.56 C-1010.12 961.94 -1016.1 965.37 -1022.06 968.81 C-1031.36 974.14 -1040.81 979.09 -1050.32 984.01 C-1057.48 987.78 -1064.48 991.82 -1071.49 995.87 C-1079.78 1000.58 -1088.18 1005.06 -1096.58 1009.56 C-1109.75 1016.61 -1122.85 1023.76 -1135.81 1031.19 C-1145.23 1036.54 -1154.79 1041.52 -1164.44 1046.44 C-1176.24 1052.47 -1187.72 1058.82 -1199.11 1065.6 C-1207.74 1070.58 -1216.61 1075.09 -1225.48 1079.64 C-1233.15 1083.59 -1240.71 1087.72 -1248.28 1091.87 C-1254.83 1095.45 -1261.41 1098.98 -1268 1102.5 C-1280.03 1108.94 -1292.03 1115.45 -1304 1122 C-1307.52 1123.92 -1311.04 1125.83 -1314.56 1127.75 C-1340.3 1141.79 -1365.95 1156.01 -1391.44 1170.5 C-1399.61 1175.13 -1407.84 1179.63 -1416.12 1184.06 C-1439.7 1196.71 -1462.97 1210.08 -1485.72 1224.16 C-1493.07 1228.66 -1500.63 1232.71 -1508.21 1236.81 C-1535 1251.55 -1560.9 1268.01 -1586.88 1284.12 C-1594.45 1288.82 -1602.06 1293.46 -1609.69 1298.06 C-1619.64 1304.11 -1629.34 1310.49 -1639 1317 C-1648.39 1323.15 -1657.81 1329.24 -1667.25 1335.31 C-1683.66 1345.98 -1699.9 1356.88 -1716 1368 C-1719.6 1370.46 -1723.21 1372.92 -1726.81 1375.38 C-1728.68 1376.65 -1730.55 1377.92 -1732.47 1379.23 C-1737.56 1382.7 -1742.66 1386.16 -1747.75 1389.62 C-1756.93 1395.95 -1765.98 1402.44 -1775 1409 C-1784.15 1415.6 -1793.29 1422.21 -1802.44 1428.81 C-1805.26 1430.85 -1808.09 1432.9 -1811 1435 C-1812.75 1436.26 -1814.51 1437.52 -1816.31 1438.81 C-1821.69 1442.77 -1827 1446.81 -1832.31 1450.88 C-1840.43 1457.08 -1848.67 1463.07 -1857 1469 C-1861.35 1472.31 -1865.68 1475.65 -1870 1479 C-1872.12 1480.63 -1874.25 1482.26 -1876.44 1483.94 C-1883.32 1489.25 -1890.17 1494.62 -1897 1500 C-1899.27 1501.77 -1901.54 1503.55 -1903.88 1505.38 C-1908.95 1509.38 -1913.98 1513.43 -1919 1517.5 C-1926.28 1523.41 -1933.63 1529.21 -1941 1535 C-1946.34 1539.32 -1951.67 1543.66 -1957 1548 C-1964.69 1554.27 -1972.38 1560.51 -1980.19 1566.62 C-1988.92 1573.52 -1997.4 1580.63 -2005.62 1588.12 C-2009.15 1591.32 -2012.75 1594.43 -2016.44 1597.44 C-2020.39 1600.68 -2024.23 1604.05 -2028 1607.5 C-2033.52 1612.56 -2039.21 1617.26 -2045 1622 C-2049.02 1625.65 -2053.02 1629.32 -2057 1633 C-2058.32 1634.15 -2058.32 1634.15 -2065 1640 C-2070.01 1644.66 -2075.01 1649.33 -2080 1654 C-2082.12 1655.94 -2084.25 1657.88 -2086.44 1659.88 C-2091.06 1664.14 -2095.55 1668.55 -2100 1673 C-2101.32 1674.15 -2101.32 1674.15 -2108 1680 C-2109.49 1681.48 -2110.97 1682.97 -2112.5 1684.5 C-2116.5 1688.5 -2120.74 1692.27 -2125 1696 C-2130.02 1700.98 -2135.02 1705.98 -2140 1711 C-2147.52 1718.58 -2154.96 1725.97 -2163 1733 C-2164.32 1734.65 -2165.64 1736.3 -2167 1738 C-2167.66 1738 -2168.32 1738 -2169 1738 C-2169 1738.66 -2169 1739.32 -2169 1740 C-2172.93 1743.93 -2176.87 1747.85 -2180.8 1751.77 C-2183.47 1754.42 -2186.13 1757.08 -2188.88 1759.81 C-2190.2 1761.14 -2190.2 1761.14 -2196.93 1767.83 C-2201.77 1772.74 -2206.46 1777.81 -2211 1783 C-2214.33 1786.33 -2217.67 1789.67 -2221 1793 C-2223.31 1795.64 -2225.62 1798.28 -2228 1801 C-2230.64 1803.64 -2233.28 1806.28 -2236 1809 C-2238.31 1811.64 -2240.62 1814.28 -2243 1817 C-2247.67 1822 -2252.33 1827 -2257 1832 C-2259.31 1834.64 -2261.62 1837.28 -2264 1840 C-2268 1844.33 -2272 1848.67 -2276 1853 C-2280.14 1857.74 -2284.26 1862.5 -2288.31 1867.31 C-2293.43 1873.33 -2298.67 1879.18 -2304 1885 C-2313.51 1895.86 -2322.87 1906.82 -2332 1918 C-2337.62 1924.68 -2343.29 1931.33 -2349 1937.94 C-2354.85 1944.83 -2360.45 1951.86 -2366 1959 C-2367.84 1961.33 -2369.67 1963.66 -2371.56 1966.06 C-2375.04 1970.5 -2378.5 1974.96 -2381.94 1979.44 C-2385.49 1984.04 -2389.1 1988.6 -2392.75 1993.12 C-2399.73 2001.92 -2406.36 2010.94 -2413 2020 C-2417.33 2025.67 -2421.67 2031.33 -2426 2037 C-2434.13 2047.91 -2442.11 2058.92 -2450 2070 C-2452.12 2072.93 -2454.25 2075.86 -2456.44 2078.88 C-2460.51 2084.54 -2464.54 2090.25 -2468.5 2096 C-2476.72 2107.95 -2485.29 2119.64 -2493.81 2131.38 C-2498.69 2138.17 -2503.41 2145 -2508 2152 C-2512.07 2158.14 -2516.18 2164.25 -2520.38 2170.31 C-2536.33 2193.38 -2551.31 2217.11 -2566 2241 C-2566.53 2241.84 -2566.53 2241.84 -2569.23 2246.11 C-2577.68 2259.52 -2585.8 2273.09 -2593.78 2286.79 C-2601.62 2300.19 -2609.65 2313.47 -2617.69 2326.75 C-2630.83 2348.84 -2643.16 2371.37 -2655.27 2394.04 C-2658.52 2400.1 -2661.81 2406.15 -2665.12 2412.19 C-2670.56 2422.11 -2675.76 2432.15 -2680.96 2442.2 C-2684.82 2449.56 -2688.92 2456.77 -2693 2464 C-2695.37 2468.65 -2697.7 2473.32 -2700 2478 C-2700.61 2479.22 -2700.61 2479.22 -2703.7 2485.39 C-2715.53 2509.08 -2726.93 2532.95 -2738 2557 C-2740.19 2561.71 -2742.37 2566.42 -2744.56 2571.12 C-2749.82 2582.44 -2755.04 2593.78 -2760.25 2605.12 C-2762.12 2609.12 -2764.06 2613.08 -2766.05 2617.02 C-2768.92 2622.83 -2771.34 2628.65 -2773.69 2634.69 C-2781.3 2653.94 -2789.83 2672.76 -2798.49 2691.55 C-2799.32 2693.35 -2800.15 2695.15 -2801 2697 C-2801.43 2697.93 -2801.43 2697.93 -2803.63 2702.63 C-2806 2708 -2806 2708 -2809 2717 C-2809.66 2717.16 -2809.66 2717.16 -2813 2718 C-2815.88 2710.33 -2818.07 2702.64 -2820.19 2694.74 C-2821.52 2689.77 -2822.88 2684.81 -2824.25 2679.86 C-2828.18 2665.63 -2831.93 2651.44 -2835 2637 C-2836.32 2631.66 -2837.66 2626.33 -2839 2621 C-2840.68 2614 -2842.34 2607 -2844 2600 C-2844.32 2598.66 -2844.32 2598.66 -2845.94 2591.88 C-2851 2570.09 -2855.64 2548.25 -2860 2526.31 C-2860.26 2524.99 -2860.26 2524.99 -2861.59 2518.31 C-2879.84 2426.37 -2893.08 2333.31 -2902 2240 C-2902.22 2237.7 -2902.44 2235.39 -2902.67 2233.02 C-2908.05 2175.73 -2909.4 2118.51 -2909.44 2061 C-2909.44 2058.28 -2909.45 2055.56 -2909.46 2052.76 C-2909.51 2018.7 -2908.5 1984.97 -2906 1951 C-2905.66 1945.21 -2905.32 1939.42 -2905 1933.62 C-2904.67 1928.08 -2904.34 1922.54 -2904 1917 C-2903.83 1914.04 -2903.66 1911.09 -2903.49 1908.04 C-2898.4 1827.26 -2885.73 1746.92 -2868 1668 C-2867.44 1665.48 -2866.87 1662.96 -2866.29 1660.37 C-2854.08 1606.89 -2839.38 1553.69 -2821 1502 C-2820.18 1499.7 -2819.37 1497.4 -2818.53 1495.03 C-2804.78 1456.39 -2789.67 1418.47 -2773 1381 C-2772.27 1379.35 -2772.27 1379.35 -2768.56 1371 C-2760.73 1353.83 -2752.5 1336.86 -2744 1320 C-2742.8 1317.57 -2741.61 1315.13 -2740.38 1312.62 C-2731.78 1295.67 -2722.68 1278.99 -2713.18 1262.53 C-2710.85 1258.47 -2708.53 1254.4 -2706.22 1250.32 C-2697.53 1234.95 -2688.46 1219.9 -2679 1205 C-2677.27 1202.22 -2675.53 1199.43 -2673.75 1196.56 C-2666.41 1184.87 -2658.97 1173.28 -2651 1162 C-2649.87 1160.29 -2648.73 1158.58 -2647.56 1156.81 C-2628.92 1128.98 -2609.14 1101.89 -2588.19 1075.75 C-2583.82 1070.29 -2579.54 1064.76 -2575.31 1059.19 C-2570.41 1052.82 -2565.43 1046.9 -2560 1041 C-2556.99 1037.34 -2553.99 1033.67 -2551 1030 C-2541.8 1019.21 -2532.49 1008.54 -2523 998 C-2521.85 996.68 -2521.85 996.68 -2516 990 C-2513.36 987.36 -2510.72 984.72 -2508 982 C-2506.85 980.68 -2506.85 980.68 -2501 974 C-2496.33 969.33 -2491.67 964.67 -2487 960 C-2485.85 958.68 -2485.85 958.68 -2480 952 C-2476.21 948.12 -2472.4 944.27 -2468.56 940.44 C-2466.58 938.46 -2464.61 936.47 -2462.57 934.43 C-2458.18 930.15 -2453.62 926.04 -2449 922 C-2447.35 920.35 -2445.7 918.7 -2444 917 C-2439.83 912.83 -2435.44 908.88 -2431 905 C-2425.33 899.67 -2419.66 894.34 -2414 889 C-2407.73 883.25 -2401.4 877.6 -2395 872 C-2393.41 870.56 -2391.82 869.11 -2390.19 867.62 C-2384.91 862.92 -2379.49 858.45 -2374 854 C-2371.26 851.73 -2368.51 849.46 -2365.69 847.12 C-2358.2 840.98 -2350.62 834.98 -2343 829 C-2340.13 826.63 -2337.27 824.26 -2334.31 821.81 C-2327.98 816.62 -2321.66 811.74 -2315 807 C-2312.53 805.14 -2310.05 803.29 -2307.5 801.38 C-2292.21 789.91 -2276.79 778.77 -2261 768 C-2258.15 765.92 -2255.31 763.83 -2252.38 761.69 C-2243.04 755.03 -2233.51 748.84 -2223.82 742.71 C-2219.38 739.88 -2214.99 736.96 -2210.62 734 C-2201.41 727.95 -2191.94 722.4 -2182.44 716.81 C-2177.6 713.95 -2172.82 711 -2168.06 708 C-2156.23 700.66 -2144.11 693.87 -2132 687 C-2129.66 685.66 -2127.32 684.32 -2124.91 682.95 C-2099.62 668.51 -2073.87 655.11 -2047.88 641.97 C-2042.37 639.19 -2036.86 636.38 -2031.35 633.58 C-2009.84 622.7 -1988.09 612.65 -1966 603 C-1962.23 601.28 -1958.45 599.55 -1954.69 597.81 C-1925.1 584.49 -1894.92 572.42 -1864.7 560.62 C-1860.52 558.99 -1856.34 557.33 -1852.18 555.66 C-1839.25 550.49 -1826.18 545.99 -1812.95 541.65 C-1804.93 538.98 -1796.96 536.16 -1789 533.31 C-1759.27 522.76 -1729.22 513.05 -1699 504 C-1696.99 503.4 -1694.99 502.79 -1692.92 502.17 C-1648.9 489.01 -1604.6 477.03 -1560 466 C-1556.02 465 -1552.04 464 -1548.06 463 C-1516.85 455.21 -1485.5 448.15 -1454.06 441.31 C-1445.18 439.38 -1436.34 437.36 -1427.5 435.25 C-1419.02 433.24 -1410.56 431.6 -1402 430 C-1398.53 429.17 -1395.07 428.35 -1391.5 427.5 C-1382.68 425.4 -1373.92 423.61 -1365 422 C-1361.8 421.36 -1358.61 420.72 -1355.31 420.06 C-1348.47 418.69 -1341.61 417.36 -1334.75 416.06 C-1327.04 414.58 -1319.37 413.05 -1311.69 411.44 C-1302.47 409.52 -1293.25 407.73 -1284 406 C-1278.05 404.78 -1272.1 403.53 -1266.15 402.28 C-1249.5 398.81 -1232.79 395.75 -1216.05 392.72 C-1208.65 391.31 -1201.34 389.73 -1194 388 C-1187 386.65 -1180 385.32 -1173 384 C-1151.87 379.94 -1130.75 375.83 -1109.69 371.44 C-1100.8 369.58 -1091.9 367.78 -1083 366 C-1079.99 365.36 -1076.98 364.72 -1073.88 364.06 C-1063.6 361.92 -1053.31 359.95 -1043 358 C-1036.33 356.67 -1029.67 355.34 -1023 354 C-1019.45 353.3 -1015.9 352.6 -1012.25 351.88 C-1006.47 350.7 -1000.72 349.43 -995 348 C-990.73 347.11 -986.46 346.24 -982.19 345.38 C-967.89 342.44 -953.66 339.22 -939.44 335.94 C-932.09 334.25 -924.74 332.61 -917.38 331 C-904.58 328.17 -891.85 325.07 -879.12 321.95 C-871.62 320.15 -864.1 318.46 -856.56 316.81 C-846.26 314.56 -836.16 311.84 -826 309 C-821.8 308.03 -817.59 307.07 -813.38 306.12 C-802.67 303.7 -792.2 300.79 -781.68 297.64 C-776.58 296.17 -771.42 294.91 -766.25 293.69 C-753.17 290.56 -740.25 286.95 -727.31 283.3 C-720.56 281.43 -713.8 279.68 -707 278 C-693.14 274.11 -679.34 270.04 -665.55 265.93 C-659.94 264.28 -654.32 262.69 -648.69 261.12 C-637.67 257.9 -626.83 254.31 -615.95 250.64 C-607.98 247.99 -599.97 245.48 -591.94 243 C-570.46 236.33 -549.27 228.88 -528.12 221.22 C-521.84 218.94 -515.54 216.69 -509.25 214.44 C-498.11 210.43 -487.05 206.24 -476 202 C-472.68 200.74 -469.36 199.48 -465.94 198.19 C-448.18 191.39 -430.47 184.53 -413 177 C-408.48 175.12 -403.96 173.24 -399.44 171.38 C-396.91 170.33 -394.39 169.29 -391.79 168.21 C-386.71 166.12 -381.63 164.03 -376.55 161.94 C-362.95 156.34 -349.42 150.61 -335.98 144.65 C-330.15 142.07 -324.3 139.53 -318.44 137 C-306.55 131.84 -294.77 126.44 -283 121 C-281.93 120.51 -281.93 120.51 -276.49 118.01 C-260.41 110.6 -244.48 102.9 -228.57 95.14 C-214.15 88.17 -199.61 81.49 -185.05 74.81 C-183.93 74.3 -183.93 74.3 -178.25 71.69 C-176.28 70.78 -174.3 69.88 -172.27 68.95 C-164.78 65.42 -157.39 61.72 -150 58 C-145.62 55.81 -141.24 53.63 -136.86 51.45 C-131.97 49.01 -127.08 46.57 -122.19 44.12 C-120.97 43.52 -120.97 43.52 -114.79 40.44 C-101.45 33.78 -88.18 26.99 -75 20 C-65.41 15.12 -55.74 10.39 -46.06 5.69 C-43.99 4.68 -41.92 3.67 -39.79 2.64 C-26.07 -3.61 -14.28 -5.35 0 0 Z " fill="#8DA56D" transform="translate(4190,620)"/>
  </g>
</svg>
